<svg width="29" height="23" viewBox="0 0 29 23" fill="none" xmlns="http://www.w3.org/2000/svg">
<path d="M4.62497 17.6874C4.79942 17.5133 5.03385 17.4153 5.27917 17.4153H27.9856C28.3999 17.4153 28.6071 17.9161 28.3127 18.2046L23.8259 22.6843C23.6514 22.8585 23.417 22.9565 23.1717 22.9565H0.465311C0.0509807 22.9565 -0.156184 22.4557 0.138208 22.1672L4.62497 17.6874Z" fill="black"/>
<path d="M4.62497 0.272162C4.79942 0.0979783 5.03385 0 5.27917 0H27.9856C28.3999 0 28.6071 0.500778 28.3127 0.78927L23.8259 5.26361C23.6514 5.4378 23.417 5.53577 23.1717 5.53577H0.465311C0.0509807 5.53577 -0.156184 5.035 0.138208 4.7465L4.62497 0.272162Z" fill="black"/>
<path d="M23.8259 9.27216C23.6514 9.09798 23.417 9 23.1717 9H0.465311C0.0509807 9 -0.156184 9.50078 0.138208 9.78927L4.62497 14.2636C4.79942 14.4378 5.03385 14.5358 5.27917 14.5358H27.9856C28.3999 14.5358 28.6071 14.035 28.3127 13.7465L23.8259 9.27216Z" fill="black"/>
</svg>
